<svg xmlns="http://www.w3.org/2000/svg" version="1.1" xmlns:xlink="http://www.w3.org/1999/xlink" xmlns:svgjs="http://svgjs.dev/svgjs" width="1000" height="1000" viewBox="0 0 1000 1000"><rect width="1000" height="1000" fill="#ffffff"></rect><g transform="matrix(0.7,0,0,0.7,149.57575757575756,456.8685546179139)"><svg viewBox="0 0 396 49" data-background-color="#ffffff" preserveAspectRatio="xMidYMid meet" height="123" width="1000" xmlns="http://www.w3.org/2000/svg" xmlns:xlink="http://www.w3.org/1999/xlink"><g id="tight-bounds" transform="matrix(1,0,0,1,0.2400000000000091,0.046351030455468845)"><svg viewBox="0 0 395.52 48.907297939089084" height="48.907297939089084" width="395.52"><g><svg viewBox="0 0 462.9502689943662 57.245263796240145" height="48.907297939089084" width="395.52"><g><rect width="2.581218483128587" height="28.76574505761067" x="58.091934063257" y="14.239759369314738" fill="#0063db" opacity="1" stroke-width="0" stroke="transparent" fill-opacity="1" class="rect-r$-0" data-fill-palette-color="primary" rx="1%" id="r$-0" data-palette-color="#0063db"></rect></g><g transform="matrix(1,0,0,1,67.43026899436619,14.311315949060036)"><svg viewBox="0 0 395.52 28.622631898120073" height="28.622631898120073" width="395.52"><g id="textblocktransform"><svg viewBox="0 0 395.52 28.622631898120073" height="28.622631898120073" width="395.52" id="textblock"><g><svg viewBox="0 0 395.52 28.622631898120073" height="28.622631898120073" width="395.52"><g transform="matrix(1,0,0,1,0,0)"><svg width="395.52" viewBox="0 -35.8 500.02 35.8" height="28.622631898120073" data-palette-color="#0063db"><g class="wordmark-text-0" data-fill-palette-color="primary" id="text-0"><path d="M21.65-2.15L35-2.15 35 0 0 0 0-2.15 13.3-2.15 0.15-34.95 6.75-34.95 17.5-8.85 28.25-34.95 34.85-34.95 21.65-2.15ZM35-2.15L39.85-2.15 39.85-34.95 45.75-34.95 45.75-2.15 50.6-2.15 50.6 0 35 0 35-2.15ZM83.4-2.15L88.25-2.15 88.25 0 77.45 0 69.09-11.75 61.35-11.75 61.35 0 50.6 0 50.6-2.15 55.45-2.15 55.45-34.95 68.45-34.95Q76.45-34.95 79.9-32.25 83.34-29.55 83.34-23.6L83.34-23.6Q83.34-14.95 75.8-12.7L75.8-12.7 83.4-2.15ZM68.7-17.1Q73.7-17.1 75.5-18.65 77.3-20.2 77.3-23.63 77.3-27.05 75.45-28.33 73.59-29.6 68.84-29.6L68.84-29.6 61.35-29.6 61.35-17.1 68.7-17.1ZM105.04-2.15L117.19-2.15 117.19 0 86.99 0 86.99-2.15 99.14-2.15 99.14-29.55 88.54-29.55 88.54-34.95 115.64-34.95 115.64-29.55 105.04-29.55 105.04-2.15ZM145.19-2.15L155.59-2.15 155.59 0 117.19 0 117.19-2.15 127.54-2.15Q121.59-6.3 121.59-15.3L121.59-15.3 121.59-34.95 127.49-34.95 127.49-15.55Q127.49-10.75 129.89-7.95 132.29-5.15 136.39-5.15 140.49-5.15 142.89-7.95 145.29-10.75 145.29-15.55L145.29-15.55 145.29-34.95 151.19-34.95 151.19-15.3Q151.19-6.25 145.19-2.15L145.19-2.15ZM191.74-2.15L197.54-2.15 197.54 0 186.39 0 182.89-7.95 165.39-7.95 161.89 0 150.74 0 150.74-2.15 156.54-2.15 170.99-34.95 177.29-34.95 191.74-2.15ZM167.79-13.4L180.49-13.4 174.14-27.8 167.79-13.4ZM219.39-2.15L224.24-2.15 224.24 0 192.69 0 192.69-2.15 197.54-2.15 197.54-34.95 203.44-34.95 203.44-5.6 219.39-5.6 219.39-2.15Z" fill="#0063db" data-fill-palette-color="primary"></path><path d="M224.24-2.15L237.94-2.15 237.94 0 224.24 0 224.24-2.15ZM268.19-2.15L274.74-2.15 274.74 0 237.94 0 237.94-2.15 249.04-2.15Q245.09-4.5 242.81-8.55 240.54-12.6 240.54-17.7L240.54-17.7Q240.54-25.4 245.86-30.6 251.19-35.8 259.31-35.8 267.44-35.8 272.89-29.8L272.89-29.8 269.14-25.7Q266.64-28.1 264.41-29.05 262.19-30 259.19-30L259.19-30Q253.89-30 250.29-26.58 246.69-23.15 246.69-17.82 246.69-12.5 250.26-8.93 253.84-5.35 258.74-5.35L258.74-5.35Q261.79-5.35 263.99-6.38 266.19-7.4 268.59-9.65L268.59-9.65 272.39-5.75Q270.19-3.35 268.19-2.15L268.19-2.15ZM305.29-2.15L316.74-2.15 316.74 0 274.74 0 274.74-2.15 286.19-2.15Q282.09-4.5 279.71-8.6 277.34-12.7 277.34-17.75L277.34-17.75Q277.34-25.45 282.64-30.63 287.94-35.8 295.74-35.8 303.54-35.8 308.83-30.63 314.14-25.45 314.14-17.75L314.14-17.75Q314.14-12.75 311.76-8.6 309.39-4.45 305.29-2.15L305.29-2.15ZM304.51-26.7Q300.94-30.4 295.74-30.4 290.54-30.4 286.96-26.7 283.39-23 283.39-17.73 283.39-12.45 286.96-8.75 290.54-5.05 295.74-5.05 300.94-5.05 304.51-8.75 308.08-12.45 308.08-17.73 308.08-23 304.51-26.7ZM316.73-2.15L321.58-2.15 321.58-34.95 327.48-34.95 347.78-8.85 347.78-34.95 353.68-34.95 353.68-2.15 358.53-2.15 358.53 0 347.28 0 327.48-25.5 327.48 0 316.73 0 316.73-2.15ZM358.53-2.15L363.38-2.15 363.38-34.95 369.28-34.95 389.58-8.85 389.58-34.95 395.48-34.95 395.48-2.15 400.33-2.15 400.33 0 389.08 0 369.28-25.5 369.28 0 358.53 0 358.53-2.15ZM400.33-2.15L405.18-2.15 405.18-34.95 429.73-34.95 429.73-29.4 411.08-29.4 411.08-20.15 427.83-20.15 427.83-14.9 411.08-14.9 411.08-5.55 430.33-5.55 430.33-2.15 435.18-2.15 435.18 0 400.33 0 400.33-2.15ZM463.28-2.15L469.83-2.15 469.83 0 433.03 0 433.03-2.15 444.13-2.15Q440.18-4.5 437.9-8.55 435.63-12.6 435.63-17.7L435.63-17.7Q435.63-25.4 440.95-30.6 446.28-35.8 454.4-35.8 462.53-35.8 467.98-29.8L467.98-29.8 464.23-25.7Q461.73-28.1 459.5-29.05 457.28-30 454.28-30L454.28-30Q448.98-30 445.38-26.58 441.78-23.15 441.78-17.82 441.78-12.5 445.35-8.93 448.93-5.35 453.83-5.35L453.83-5.35Q456.88-5.35 459.08-6.38 461.28-7.4 463.68-9.65L463.68-9.65 467.48-5.75Q465.28-3.35 463.28-2.15L463.28-2.15ZM487.87-2.15L500.02-2.15 500.02 0 469.82 0 469.82-2.15 481.97-2.15 481.97-29.55 471.37-29.55 471.37-34.95 498.47-34.95 498.47-29.55 487.87-29.55 487.87-2.15Z" fill="#111111" data-fill-palette-color="accent"></path></g></svg></g></svg></g></svg></g></svg></g><g><svg viewBox="0 0 51.33481761527641 57.245263796240145" height="57.245263796240145" width="51.33481761527641"><g><svg xmlns="http://www.w3.org/2000/svg" xmlns:xlink="http://www.w3.org/1999/xlink" version="1.1" x="0" y="0" viewBox="5.644999999999998 3.416 38.711 43.168000000000006" enable-background="new 0 0 50 50" xml:space="preserve" height="57.245263796240145" width="51.33481761527641" class="icon-icon-0" data-fill-palette-color="accent" id="icon-0"><g fill="#111111" data-fill-palette-color="accent"><path fill-rule="evenodd" clip-rule="evenodd" fill="#111111" d="M21.689 10.266h6.989c1.289 0 2.346 1.059 2.346 2.301v5.099h-1.383v-2.663c0-0.323-0.275-0.6-0.594-0.6l0 0c-0.369 0-0.645 0.276-0.645 0.6v2.663h-6.345v-2.663c0-0.323-0.276-0.6-0.643-0.6l0 0c-0.323 0-0.598 0.276-0.598 0.6v2.663h-1.518v-5.099C19.299 11.324 20.357 10.266 21.689 10.266L21.689 10.266zM25.183 3.416c1.657 0 2.989 1.334 2.989 2.989 0 1.654-1.332 2.987-2.989 2.987-1.653 0-2.988-1.333-2.988-2.987C22.195 4.75 23.53 3.416 25.183 3.416z" data-fill-palette-color="accent"></path><path fill-rule="evenodd" clip-rule="evenodd" fill="#111111" d="M7.761 21.987h1.377c1.152 0 2.025 0.921 2.025 2.023v4.136l-2.025 6.621H7.761c-1.104 0-2.023-0.918-2.023-2.02v-8.737C5.738 22.908 6.658 21.987 7.761 21.987L7.761 21.987zM8.449 15.417c1.565 0 2.806 1.284 2.806 2.802 0 1.563-1.24 2.804-2.806 2.804-1.563 0-2.804-1.241-2.804-2.804C5.645 16.701 6.886 15.417 8.449 15.417z" data-fill-palette-color="accent"></path><path fill-rule="evenodd" clip-rule="evenodd" fill="#111111" d="M40.814 21.987h1.424c1.104 0 2.021 0.921 2.021 2.023v8.737c0 1.102-0.918 2.02-2.021 2.02h-1.057l-2.391-7.769v-2.988C38.791 22.908 39.709 21.987 40.814 21.987L40.814 21.987zM41.547 15.417c1.518 0 2.809 1.284 2.809 2.802 0 1.563-1.291 2.804-2.809 2.804-1.559 0-2.801-1.241-2.801-2.804C38.746 16.701 39.988 15.417 41.547 15.417z" data-fill-palette-color="accent"></path><path fill="#111111" d="M30.469 36.699c-0.457 0-0.873 0.369-0.873 0.826v1.426h1.701v-1.426C31.297 37.068 30.932 36.699 30.469 36.699z" data-fill-palette-color="accent"></path><path fill="#111111" d="M20.037 36.699c-0.462 0-0.831 0.369-0.831 0.826v1.426h1.703v-1.426C20.909 37.068 20.495 36.699 20.037 36.699z" data-fill-palette-color="accent"></path><path fill="#111111" d="M40.324 36.088l-4.311-14.655c-0.479-1.53-1.35-2.832-3.004-2.832H17.513c-1.655 0-2.568 1.302-3.004 2.832l-4.354 14.655c-0.436 1.531 1.35 2.832 3.004 2.832h4.483v-4.676c0-1.662 1.393-3.057 3.091-3.057h9.057c1.695 0 3.045 1.395 3.045 3.057v4.676h4.484C38.973 38.92 40.76 37.619 40.324 36.088zM25.262 30.02c-2.178 0-3.919-1.799-3.919-4.004 0-2.201 1.741-4.002 3.919-4.002 2.132 0 3.875 1.801 3.875 4.002C29.137 28.221 27.395 30.02 25.262 30.02z" data-fill-palette-color="accent"></path><path fill="#111111" d="M17.137 43.457c0 1.332 0.875 2.437 2.068 2.896v-7.402h-2.068V43.457z" data-fill-palette-color="accent"></path><path fill="#111111" d="M31.297 46.307c1.15-0.504 1.885-1.607 1.885-2.85v-4.506h-1.885V46.307z" data-fill-palette-color="accent"></path><rect x="20.909" y="38.951" fill="#111111" width="8.687" height="7.633" data-fill-palette-color="accent"></rect></g></svg></g></svg></g></svg></g><defs></defs></svg><rect width="395.52" height="48.907297939089084" fill="none" stroke="none" visibility="hidden"></rect></g></svg></g></svg>