<svg xmlns="http://www.w3.org/2000/svg" version="1.1" xmlns:xlink="http://www.w3.org/1999/xlink" xmlns:svgjs="http://svgjs.dev/svgjs" width="1000" height="1000" viewBox="0 0 1000 1000"><rect width="1000" height="1000" fill="#000000"></rect><g transform="matrix(0.7,0,0,0.7,149.57575757575756,438.9984719931573)"><svg viewBox="0 0 396 69" data-background-color="#ffffff" preserveAspectRatio="xMidYMid meet" height="174" width="1000" xmlns="http://www.w3.org/2000/svg" xmlns:xlink="http://www.w3.org/1999/xlink"><g id="tight-bounds" transform="matrix(1,0,0,1,0.2400000000000091,0.057515865945362066)"><svg viewBox="0 0 395.52 68.88496826810928" height="68.88496826810928" width="395.52"><g><svg viewBox="0 0 498.7221086837064 86.8589619520673" height="68.88496826810928" width="395.52"><g transform="matrix(1,0,0,1,103.20210868370638,12.004386203216253)"><svg viewBox="0 0 395.52 62.8501895456348" height="62.8501895456348" width="395.52"><g id="textblocktransform"><svg viewBox="0 0 395.52 62.8501895456348" height="62.8501895456348" width="395.52" id="textblock"><g><svg viewBox="0 0 395.52 62.8501895456348" height="62.8501895456348" width="395.52"><g transform="matrix(1,0,0,1,0,0)"><svg width="395.52" viewBox="3.69 -35.51044921875 226.52 36.00044921875" height="62.8501895456348" data-palette-color="#ffffff"><path d="M44.43-32.3L44.43 0 38.04 0 38.04-20.85 26.78-1.05Q26.37-0.29 25.62 0.1 24.88 0.49 24.02 0.49L24.02 0.49Q23.19 0.49 22.47 0.1 21.75-0.29 21.34-1.05L21.34-1.05 10.03-20.85 10.03 0 3.69 0 3.69-32.3Q3.69-33.4 4.33-34.25 4.98-35.11 6.03-35.4L6.03-35.4Q6.54-35.52 7.06-35.49 7.57-35.45 8.04-35.27 8.52-35.08 8.91-34.75 9.3-34.42 9.57-33.96L9.57-33.96 24.02-8.84 38.48-33.96Q39.04-34.89 40.03-35.28 41.02-35.67 42.09-35.4L42.09-35.4Q43.12-35.11 43.77-34.25 44.43-33.4 44.43-32.3L44.43-32.3ZM80.59-20.7L80.59-14.31 60.54-14.31 60.54-20.7 80.59-20.7ZM83.44-6.35L83.44 0 60.54 0Q59.23 0 57.66-0.46 56.1-0.93 54.77-1.99 53.44-3.05 52.55-4.75 51.66-6.45 51.66-8.91L51.66-8.91 51.66-31.81Q51.66-32.47 51.9-33.06 52.15-33.64 52.57-34.08 53-34.52 53.59-34.77 54.17-35.01 54.86-35.01L54.86-35.01 83.44-35.01 83.44-28.66 58.01-28.66 58.01-8.91Q58.01-7.67 58.66-7.01 59.32-6.35 60.59-6.35L60.59-6.35 83.44-6.35ZM118.35-20.7L118.35-14.31 98.31-14.31 98.31-20.7 118.35-20.7ZM121.21-6.35L121.21 0 98.31 0Q96.99 0 95.43-0.46 93.87-0.93 92.54-1.99 91.21-3.05 90.31-4.75 89.42-6.45 89.42-8.91L89.42-8.91 89.42-31.81Q89.42-32.47 89.67-33.06 89.91-33.64 90.34-34.08 90.77-34.52 91.35-34.77 91.94-35.01 92.62-35.01L92.62-35.01 121.21-35.01 121.21-28.66 95.77-28.66 95.77-8.91Q95.77-7.67 96.43-7.01 97.09-6.35 98.36-6.35L98.36-6.35 121.21-6.35ZM158.98-35.01L158.98-28.66 144.99-28.66 144.99 0 138.64 0 138.64-28.66 124.63-28.66 124.63-35.01 158.98-35.01ZM195.79-6.35L195.79 0 166.84 0Q166.15 0 165.57-0.24 164.98-0.49 164.55-0.92 164.13-1.34 163.88-1.93 163.64-2.51 163.64-3.2L163.64-3.2 163.64-35.01 169.99-35.01 169.99-6.35 195.79-6.35ZM230.21-35.01L230.21-23.29Q230.21-21.12 229.66-19.41 229.11-17.7 228.21-16.39 227.31-15.09 226.1-14.16 224.89-13.23 223.6-12.63 222.3-12.04 220.97-11.77 219.64-11.5 218.47-11.5L218.47-11.5 215.91-11.5 215.91 0 209.51 0 209.51-11.5 206.97-11.5Q205.8-11.5 204.47-11.77 203.14-12.04 201.83-12.63 200.52-13.23 199.33-14.16 198.13-15.09 197.22-16.39 196.3-17.7 195.75-19.42 195.2-21.14 195.2-23.29L195.2-23.29 195.2-35.01 201.55-35.01 201.55-23.29Q201.55-22.05 201.94-21.06 202.33-20.07 203.04-19.36 203.75-18.65 204.76-18.27 205.77-17.9 207.02-17.9L207.02-17.9 218.47-17.9Q219.37-18.04 220.32-18.27 221.28-18.51 222.06-19.07 222.84-19.63 223.35-20.63 223.86-21.63 223.86-23.29L223.86-23.29 223.86-35.01 230.21-35.01Z" opacity="1" transform="matrix(1,0,0,1,0,0)" fill="#ffffff" class="wordmark-text-0" data-fill-palette-color="primary" id="text-0"></path></svg></g></svg></g></svg></g></svg></g><g><svg viewBox="0 0 88.3646873365311 86.8589619520673" height="86.8589619520673" width="88.3646873365311"><g><svg xmlns="http://www.w3.org/2000/svg" xmlns:xlink="http://www.w3.org/1999/xlink" version="1.1" x="0" y="0" viewBox="-345.9993836358223 257.9479943277313 99.75176572719312 98.0520056722687" enable-background="new -346 256 100 100" xml:space="preserve" height="86.8589619520673" width="88.3646873365311" class="icon-icon-0" data-fill-palette-color="accent" id="icon-0"><path d="M-246.455 327.152l-16.86-64.454c0 0-1.243-4.756-6.002-4.75l-72.96 0.08c0 0-4.759 0.004-3.515 4.761l15.835 60.538c7.148-15.684 15.203-33.301 15.795-34.599l0.423-0.924 21.84-0.021-1.048 2.253c-5.985 12.87-13.768 29.775-19.236 41.944l62.212-0.067C-249.97 331.912-245.211 331.906-246.455 327.152z" fill="#ffffff" data-fill-palette-color="accent"></path><path d="M-296.864 290.954l-14.839 0.015c-9.094 19.892-25.758 56.396-26.425 58.074-1.594 4.007 0.346 6.235 1.171 6.957h56.176l-1.875-4.804h-35.137c-0.044 0.002-0.107 0.005-0.184 0.005-1.988 0-3.998-1.204-4.006-3.894-0.002-0.629-0.004-1.579 13.149-30.369C-303.924 306.194-298.966 295.487-296.864 290.954z" fill="#ffffff" data-fill-palette-color="accent"></path></svg></g></svg></g></svg></g><defs></defs></svg><rect width="395.52" height="68.88496826810928" fill="none" stroke="none" visibility="hidden"></rect></g></svg></g></svg>